<?xml version="1.0" encoding="UTF-8"?>
<!DOCTYPE svg PUBLIC "-//W3C//DTD SVG 1.1//EN" "http://www.w3.org/Graphics/SVG/1.1/DTD/svg11.dtd">
<svg xmlns="http://www.w3.org/2000/svg" version="1.1" width="512px" height="512px" style="shape-rendering:geometricPrecision; text-rendering:geometricPrecision; image-rendering:optimizeQuality; fill-rule:evenodd; clip-rule:evenodd" xmlns:xlink="http://www.w3.org/1999/xlink">
<g><path style="opacity:0.969" fill="#010101" d="M 511.5,140.5 C 511.5,145.5 511.5,150.5 511.5,155.5C 504.376,185.785 485.376,203.619 454.5,209C 451.221,215.946 446.221,221.279 439.5,225C 415.586,237.049 390.253,242.049 363.5,240C 343.167,228.833 322.833,217.667 302.5,206.5C 299.559,215.049 295.559,223.049 290.5,230.5C 305.489,231.333 320.489,231.833 335.5,232C 337.888,232.303 340.055,233.137 342,234.5C 351.359,265.435 359.859,296.601 367.5,328C 367.044,335.58 363.044,338.246 355.5,336C 353.667,335.5 352.5,334.333 352,332.5C 344.178,304.878 336.511,277.211 329,249.5C 317.895,248.18 306.728,248.18 295.5,249.5C 296.5,251.5 297.5,253.5 298.5,255.5C 306.813,256.332 315.147,256.832 323.5,257C 325.333,257.5 326.5,258.667 327,260.5C 327.667,311.167 327.667,361.833 327,412.5C 326.626,413.416 326.126,414.25 325.5,415C 322.298,416.483 318.964,416.817 315.5,416C 313.667,415.5 312.5,414.333 312,412.5C 311.5,365.835 311.333,319.168 311.5,272.5C 308.482,272.335 305.482,272.502 302.5,273C 305.62,316.254 301.12,358.754 289,400.5C 266.667,461.833 244.333,461.833 222,400.5C 209.81,358.765 205.31,316.265 208.5,273C 205.518,272.502 202.518,272.335 199.5,272.5C 199.667,319.168 199.5,365.835 199,412.5C 198.5,414.333 197.333,415.5 195.5,416C 192.036,416.817 188.702,416.483 185.5,415C 184.874,414.25 184.374,413.416 184,412.5C 183.333,361.833 183.333,311.167 184,260.5C 184.5,258.667 185.667,257.5 187.5,257C 195.853,256.832 204.187,256.332 212.5,255.5C 213.5,253.5 214.5,251.5 215.5,249.5C 204.272,248.18 193.105,248.18 182,249.5C 174.489,277.211 166.822,304.878 159,332.5C 158.5,334.333 157.333,335.5 155.5,336C 147.956,338.246 143.956,335.58 143.5,328C 151.141,296.601 159.641,265.435 169,234.5C 170.945,233.137 173.112,232.303 175.5,232C 190.511,231.833 205.511,231.333 220.5,230.5C 215.441,223.049 211.441,215.049 208.5,206.5C 188.167,217.667 167.833,228.833 147.5,240C 120.747,242.049 95.4137,237.049 71.5,225C 64.7794,221.279 59.7794,215.946 56.5,209C 25.6237,203.619 6.62367,185.785 -0.5,155.5C -0.5,150.5 -0.5,145.5 -0.5,140.5C 1.08167,138.03 3.41501,136.53 6.5,136C 20.2187,133.356 33.8854,130.523 47.5,127.5C 97.714,142.076 148.047,155.909 198.5,169C 198.833,168.667 199.167,168.333 199.5,168C 194.581,164.958 189.748,161.791 185,158.5C 174,136.5 163,114.5 152,92.5C 150.72,81.128 155.387,77.7947 166,82.5C 176.667,103.833 187.333,125.167 198,146.5C 203,149.833 208,153.167 213,156.5C 215.213,153.905 217.047,151.072 218.5,148C 211.803,130.455 216.47,116.788 232.5,107C 215.564,89.6795 194.898,80.6795 170.5,80C 165.036,74.6005 165.37,69.6005 171.5,65C 204.586,64.21 231.252,76.8767 251.5,103C 254.167,103.667 256.833,103.667 259.5,103C 280.305,75.9263 307.639,63.5929 341.5,66C 345.369,70.943 345.036,75.6097 340.5,80C 316.102,80.6795 295.436,89.6795 278.5,107C 294.53,116.788 299.197,130.455 292.5,148C 293.953,151.072 295.787,153.905 298,156.5C 303,153.167 308,149.833 313,146.5C 323.667,125.167 334.333,103.833 345,82.5C 355.613,77.7947 360.28,81.128 359,92.5C 348,114.5 337,136.5 326,158.5C 321.252,161.791 316.419,164.958 311.5,168C 312.263,168.944 313.263,169.444 314.5,169.5C 364.217,155.654 413.884,141.654 463.5,127.5C 478.95,130.556 494.283,134.056 509.5,138C 510.066,138.995 510.733,139.828 511.5,140.5 Z"/></g>
<g><path style="opacity:1" fill="#525a64" d="M 242.5,120.5 C 251.9,120.114 261.234,120.614 270.5,122C 271.428,122.388 272.095,123.055 272.5,124C 270.658,129.141 271.991,133.141 276.5,136C 262.167,136.667 247.833,136.667 233.5,136C 237.624,135.018 239.624,132.352 239.5,128C 239.294,126.634 238.96,125.301 238.5,124C 239.686,122.588 241.019,121.421 242.5,120.5 Z"/></g>
<g><path style="opacity:1" fill="#e3e6ea" d="M 44.5,144.5 C 90.2707,156.86 135.937,169.694 181.5,183C 139.549,186.96 97.5492,189.96 55.5,192C 33.3273,186.664 20.3273,172.831 16.5,150.5C 26.0311,148.862 35.3645,146.862 44.5,144.5 Z"/></g>
<g><path style="opacity:1" fill="#e2e5e9" d="M 461.5,144.5 C 472.497,146.499 483.497,148.499 494.5,150.5C 490.559,173.276 477.225,187.11 454.5,192C 412.117,189.996 369.784,186.996 327.5,183C 372.358,170.456 417.025,157.623 461.5,144.5 Z"/></g>
<g><path style="opacity:1" fill="#646c77" d="M 235.5,152.5 C 248.837,152.333 262.171,152.5 275.5,153C 277.543,156.253 279.71,159.42 282,162.5C 282.667,163.5 282.667,164.5 282,165.5C 274.191,174.266 273.525,183.599 280,193.5C 282.562,195.346 284.729,197.513 286.5,200C 282.834,212.001 276.834,222.668 268.5,232C 259.833,232.667 251.167,232.667 242.5,232C 234.166,222.668 228.166,212.001 224.5,200C 237.5,189.334 238.834,177.334 228.5,164C 230.964,160.238 233.297,156.405 235.5,152.5 Z"/></g>
<g><path style="opacity:1" fill="#e6e8eb" d="M 213.5,176.5 C 219.488,176.664 220.821,179.164 217.5,184C 211.403,184.147 210.07,181.647 213.5,176.5 Z"/></g>
<g><path style="opacity:1" fill="#e6e8ea" d="M 293.5,176.5 C 299.488,176.664 300.821,179.164 297.5,184C 291.403,184.147 290.07,181.647 293.5,176.5 Z"/></g>
<g><path style="opacity:1" fill="#c5cad2" d="M 172.5,199.5 C 176.846,199.334 181.179,199.501 185.5,200C 171.005,207.746 156.672,215.746 142.5,224C 122.718,225.092 103.718,221.759 85.5,214C 82.328,212.248 79.328,210.248 76.5,208C 108.607,204.962 140.607,202.129 172.5,199.5 Z"/></g>
<g><path style="opacity:1" fill="#c9cdd5" d="M 325.5,200.5 C 327.304,199.838 329.304,199.505 331.5,199.5C 365.834,202.296 400.167,205.13 434.5,208C 425.223,214.654 414.889,218.987 403.5,221C 391.936,223.429 380.269,224.429 368.5,224C 354.433,215.634 340.1,207.801 325.5,200.5 Z"/></g>
<g><path style="opacity:1" fill="#fdcc53" d="M 237.5,248.5 C 249.505,248.333 261.505,248.5 273.5,249C 278.22,251.92 281.387,256.087 283,261.5C 284.562,265.014 285.395,268.681 285.5,272.5C 265.5,272.5 245.5,272.5 225.5,272.5C 226.347,262.806 230.347,254.806 237.5,248.5 Z"/></g>
<g><path style="opacity:1" fill="#f4b941" d="M 223.5,288.5 C 244.833,288.5 266.167,288.5 287.5,288.5C 287.5,296.5 287.5,304.5 287.5,312.5C 266.167,312.5 244.833,312.5 223.5,312.5C 223.5,304.5 223.5,296.5 223.5,288.5 Z"/></g>
<g><path style="opacity:1" fill="#fdcc53" d="M 225.5,328.5 C 245.5,328.5 265.5,328.5 285.5,328.5C 284.965,336.512 284.299,344.512 283.5,352.5C 264.833,352.5 246.167,352.5 227.5,352.5C 226.701,344.512 226.035,336.512 225.5,328.5 Z"/></g>
<g><path style="opacity:1" fill="#f5ba41" d="M 231.5,368.5 C 247.5,368.5 263.5,368.5 279.5,368.5C 278.152,376.559 276.485,384.559 274.5,392.5C 261.833,392.5 249.167,392.5 236.5,392.5C 234.515,384.559 232.848,376.559 231.5,368.5 Z"/></g>
<g><path style="opacity:1" fill="#f8c851" d="M 242.5,409.5 C 250.99,408.343 259.657,408.176 268.5,409C 265.022,416.139 260.688,422.639 255.5,428.5C 250.415,422.658 246.082,416.325 242.5,409.5 Z"/></g>
</svg>
